<?xml version="1.0" encoding="UTF-8" standalone="no"?>
<!-- Created with Inkscape (http://www.inkscape.org/) -->

<svg
   version="1.1"
   id="svg182"
   width="18.210348"
   height="51.776711"
   viewBox="0 0 18.210348 51.776709"
   sodipodi:docname="памятник князю владимиру.jpg"
   xml:space="preserve"
   xmlns:inkscape="http://www.inkscape.org/namespaces/inkscape"
   xmlns:sodipodi="http://sodipodi.sourceforge.net/DTD/sodipodi-0.dtd"
   xmlns="http://www.w3.org/2000/svg"
   xmlns:svg="http://www.w3.org/2000/svg"><defs
     id="defs186"><inkscape:path-effect
       effect="bspline"
       id="path-effect1979"
       is_visible="true"
       lpeversion="1"
       weight="33.333333"
       steps="2"
       helper_size="0"
       apply_no_weight="true"
       apply_with_weight="true"
       only_selected="false" /><inkscape:path-effect
       effect="bspline"
       id="path-effect1975"
       is_visible="true"
       lpeversion="1"
       weight="33.333333"
       steps="2"
       helper_size="0"
       apply_no_weight="true"
       apply_with_weight="true"
       only_selected="false" /><inkscape:path-effect
       effect="bspline"
       id="path-effect1971"
       is_visible="true"
       lpeversion="1"
       weight="33.333333"
       steps="2"
       helper_size="0"
       apply_no_weight="true"
       apply_with_weight="true"
       only_selected="false" /><inkscape:path-effect
       effect="bspline"
       id="path-effect1967"
       is_visible="true"
       lpeversion="1"
       weight="33.333333"
       steps="2"
       helper_size="0"
       apply_no_weight="true"
       apply_with_weight="true"
       only_selected="false" /><inkscape:path-effect
       effect="bspline"
       id="path-effect1963"
       is_visible="true"
       lpeversion="1"
       weight="33.333333"
       steps="2"
       helper_size="0"
       apply_no_weight="true"
       apply_with_weight="true"
       only_selected="false" /><inkscape:path-effect
       effect="bspline"
       id="path-effect1958"
       is_visible="true"
       lpeversion="1"
       weight="33.333333"
       steps="2"
       helper_size="0"
       apply_no_weight="true"
       apply_with_weight="true"
       only_selected="false" /><inkscape:path-effect
       effect="bspline"
       id="path-effect1909"
       is_visible="true"
       lpeversion="1"
       weight="33.333333"
       steps="2"
       helper_size="0"
       apply_no_weight="true"
       apply_with_weight="true"
       only_selected="false" /><inkscape:path-effect
       effect="bspline"
       id="path-effect1905"
       is_visible="true"
       lpeversion="1"
       weight="33.333333"
       steps="2"
       helper_size="0"
       apply_no_weight="true"
       apply_with_weight="true"
       only_selected="false" /><inkscape:path-effect
       effect="bspline"
       id="path-effect1805"
       is_visible="true"
       lpeversion="1"
       weight="33.333333"
       steps="2"
       helper_size="0"
       apply_no_weight="true"
       apply_with_weight="true"
       only_selected="false" /><inkscape:path-effect
       effect="bspline"
       id="path-effect508"
       is_visible="true"
       lpeversion="1"
       weight="33.333333"
       steps="2"
       helper_size="0"
       apply_no_weight="true"
       apply_with_weight="true"
       only_selected="false" /></defs><sodipodi:namedview
     id="namedview184"
     pagecolor="#ffffff"
     bordercolor="#666666"
     borderopacity="1.0"
     inkscape:showpageshadow="2"
     inkscape:pageopacity="0.0"
     inkscape:pagecheckerboard="0"
     inkscape:deskcolor="#d1d1d1"
     showgrid="false"
     showguides="false" /><g
     inkscape:groupmode="layer"
     id="layer1"
     inkscape:label="владимир"
     transform="translate(-9.9062498,-21.684365)"><path
       style="fill:#453518;fill-opacity:1;stroke:none;stroke-width:0.377953;stroke-linecap:butt;stroke-linejoin:miter;stroke-dasharray:none;stroke-opacity:1"
       d="m 19.047867,23.176921 c -0.02475,-0.0275 -0.07518,-0.08354 -0.153548,-0.120399 -0.07837,-0.03686 -0.184842,-0.05368 -0.283346,-0.03424 -0.0985,0.01944 -0.188167,0.07548 -0.266856,0.165408 -0.07869,0.08993 -0.145937,0.213214 -0.257662,0.305404 -0.111726,0.09219 -0.268637,0.153834 -0.450968,0.265969 -0.182332,0.112134 -0.38968,0.27465 -0.515936,0.431942 -0.126255,0.157292 -0.171088,0.308602 -0.263451,0.451174 -0.09236,0.142572 -0.232462,0.277068 -0.330602,0.380829 -0.09814,0.10376 -0.154178,0.17661 -0.204659,0.280514 -0.05048,0.103905 -0.09531,0.238403 -0.09514,0.468432 1.78e-4,0.230029 0.04501,0.555062 0.0758,0.824039 0.03079,0.268977 0.0476,0.481929 0.03635,0.607486 -0.01125,0.125557 -0.05048,0.164787 -0.0701,0.271765 -0.01961,0.106979 -0.01961,0.280703 -0.04493,0.451451 -0.02532,0.170749 -0.07575,0.338867 -0.0811,0.496055 -0.0053,0.157187 0.03388,0.302892 0.04771,0.490514 0.01383,0.187623 0.0026,0.417387 -0.0058,0.627553 -0.0084,0.210167 -0.014,0.400703 0.0086,0.58855 0.02259,0.187847 0.07303,0.372779 0.112145,0.622113 0.03911,0.249334 0.06714,0.563158 0.05317,0.730016 -0.01396,0.166858 -0.07037,0.188031 -0.139963,0.155642 -0.0696,-0.03239 -0.152813,-0.119567 -0.257717,-0.197036 -0.104905,-0.07747 -0.231708,-0.144832 -0.365006,-0.121413 -0.133298,0.02342 -0.27199,0.138333 -0.450408,0.328642 -0.178419,0.190308 -0.396364,0.455804 -0.580357,0.622082 -0.183993,0.166278 -0.334572,0.233642 -0.51095,0.318845 -0.176378,0.0852 -0.378472,0.188231 -0.564771,0.291274 -0.186298,0.103043 -0.356691,0.206072 -0.491662,0.345019 -0.13497,0.138947 -0.234036,0.313302 -0.428183,0.598546 -0.194147,0.285243 -0.483418,0.681506 -0.695463,1.060134 -0.212044,0.378629 -0.346773,0.739228 -0.43989,1.008747 -0.09312,0.269519 -0.14463,0.447836 -0.283331,0.879753 -0.138702,0.431916 -0.364572,1.11745 -0.487339,1.668443 -0.122767,0.550992 -0.14258,0.967067 -0.204078,1.341386 -0.0615,0.374319 -0.164526,0.70718 -0.241744,1.149162 -0.07722,0.441981 -0.128732,0.992786 -0.162396,1.428711 -0.03366,0.435925 -0.04951,0.756897 -0.079225,1.662401 -0.029711,0.905504 -0.0733,2.395451 -0.043533,4.012294 0.029767,1.616843 0.132795,3.360398 0.291303,6.16603 0.158509,2.805632 0.37249,6.673153 0.511516,8.658528 0.139026,1.985375 0.202429,2.088405 0.357191,2.222942 0.154762,0.134538 0.400446,0.300968 0.820453,0.645805 0.420008,0.344837 1.014401,0.867904 1.334929,1.299934 0.320527,0.43203 0.368079,0.772817 0.375906,1.303745 0.0078,0.530927 -0.02387,1.252125 -0.01578,1.711909 0.0081,0.459785 0.05564,0.657919 0.222527,0.839962 0.166886,0.182044 0.452195,0.348474 0.646297,0.479379 0.194103,0.130906 0.29713,0.226008 0.356106,0.352881 0.05898,0.126873 0.07482,0.285378 0.08667,0.554811 0.01185,0.269434 0.01977,0.649846 0.04409,0.855836 0.02431,0.205991 0.06394,0.237689 0.119451,0.261159 0.05551,0.02347 0.126842,0.03932 1.557326,0.05504 1.430485,0.01572 4.220173,0.03157 5.658186,0.0038 1.438014,-0.02779 1.525193,-0.09911 1.624113,-0.233637 0.09892,-0.134522 0.209874,-0.332653 0.392311,-0.534967 0.182438,-0.202313 0.436046,-0.40837 0.709476,-0.630284 0.27343,-0.221914 0.566664,-0.459671 0.740911,-0.792069 0.174247,-0.332397 0.229724,-0.76036 0.297121,-1.719306 0.0674,-0.958945 0.14665,-2.448892 0.420381,-3.281636 0.273732,-0.832744 0.741322,-1.007099 1.050168,-1.16157 0.308846,-0.15447 0.459426,-0.2892 0.530731,-0.657204 0.07131,-0.368005 0.06338,-0.970324 0.02375,-4.029587 -0.03963,-3.059263 -0.110955,-8.575236 -0.174328,-11.729531 -0.06337,-3.154294 -0.11885,-3.946819 -0.221855,-4.985042 -0.103004,-1.038223 -0.253584,-2.322113 -0.380399,-3.45546 -0.126815,-1.133348 -0.229843,-2.116079 -0.435733,-3.011602 -0.205891,-0.895523 -0.514975,-1.703898 -0.740748,-2.234913 -0.225772,-0.531014 -0.368427,-0.784622 -0.530755,-1.010572 -0.162328,-0.225949 -0.344608,-0.42408 -0.479275,-0.558887 -0.134666,-0.134807 -0.221845,-0.206135 -0.321043,-0.316975 -0.0992,-0.11084 -0.210152,-0.26142 -0.332831,-0.380489 -0.122679,-0.119069 -0.257409,-0.206247 -0.384206,-0.265906 -0.126796,-0.05966 -0.245674,-0.09136 -0.340772,-0.11906 -0.0951,-0.0277 -0.166424,-0.05147 -0.229893,-0.08688 -0.06347,-0.03541 -0.118943,-0.08296 -0.202096,-0.126791 -0.08315,-0.04384 -0.194105,-0.08346 -0.27339,-0.107358 -0.07929,-0.0239 -0.126839,-0.03182 -0.174684,-0.0868 -0.04785,-0.05497 -0.0954,-0.157998 -0.170575,-0.284836 -0.07518,-0.126838 -0.178207,-0.277418 -0.340501,-0.372995 -0.162295,-0.09558 -0.384201,-0.135203 -0.594318,-0.151174 -0.210116,-0.01597 -0.408249,-0.008 -0.555327,0.03951 -0.147078,0.04755 -0.24218,0.13473 -0.290333,0.125905 -0.04815,-0.0088 -0.04932,-0.114702 -0.0555,-0.355374 -0.0062,-0.240672 -0.01739,-0.61614 -0.0033,-0.817083 0.01412,-0.200944 0.05335,-0.226164 0.09235,-0.2819 0.039,-0.05573 0.07823,-0.142594 0.08276,-0.226279 0.0045,-0.08369 -0.02629,-0.164947 -0.05567,-0.236401 -0.02938,-0.07146 -0.05739,-0.133096 -0.06892,-0.194895 -0.01152,-0.0618 -0.0059,-0.123441 0.02766,-0.207797 0.03357,-0.08436 0.09522,-0.190831 0.134437,-0.267759 0.03922,-0.07693 0.05603,-0.124558 0.0506,-0.260194 -0.0054,-0.135637 -0.03345,-0.359797 -0.05304,-0.504088 -0.01959,-0.144291 -0.0308,-0.208737 -0.02679,-0.272044 0.004,-0.06331 0.02362,-0.124951 0.03631,-0.235461 0.01269,-0.11051 0.01829,-0.270224 0.01555,-0.425688 -0.0027,-0.155463 -0.01395,-0.306771 -0.01683,-0.417528 -0.0029,-0.110758 0.0027,-0.18081 0.01114,-0.305494 0.0084,-0.124683 0.01962,-0.304011 0.01833,-0.444019 -0.0013,-0.140008 -0.01529,-0.240882 -0.05158,-0.375341 -0.03629,-0.134459 -0.09513,-0.302577 -0.23221,-0.522593 -0.137076,-0.220015 -0.35283,-0.491809 -0.525084,-0.689416 -0.172253,-0.197608 -0.301145,-0.320896 -0.397747,-0.389909 -0.0966,-0.06901 -0.161047,-0.08302 -0.222711,-0.09428 -0.06167,-0.01125 -0.120512,-0.01966 -0.183708,-0.06962 -0.0632,-0.04995 -0.130444,-0.142419 -0.200443,-0.230715 -0.07,-0.08829 -0.142855,-0.172359 -0.179743,-0.214923 -0.03689,-0.04256 -0.03689,-0.04256 -0.06163,-0.07005 z"
       id="path506"
       inkscape:path-effect="#path-effect508"
       inkscape:original-d="m 19.072613,23.204417 c -0.04944,-0.05504 -0.09987,-0.111082 -0.151311,-0.168124 -0.10548,-0.01581 -0.211956,-0.03262 -0.319434,-0.05044 -0.08867,0.05704 -0.178332,0.113083 -0.268998,0.168124 -0.06625,0.124293 -0.133498,0.247581 -0.201748,0.369871 -0.155918,0.06265 -0.31283,0.12429 -0.470745,0.184936 -0.206356,0.163522 -0.413704,0.326038 -0.622056,0.487557 -0.04383,0.152314 -0.08867,0.303622 -0.134499,0.453933 -0.139105,0.135501 -0.279205,0.269997 -0.420308,0.403496 -0.05504,0.07386 -0.111082,0.146707 -0.168123,0.21856 -0.04383,0.135502 -0.08867,0.269998 -0.134499,0.403496 0.04583,0.326045 0.09067,0.651077 0.134499,0.975115 0.01781,0.213961 0.03462,0.426913 0.05044,0.638869 -0.03823,0.04023 -0.07746,0.07946 -0.117687,0.117686 0.001,0.174731 0.001,0.348455 0,0.521182 -0.04944,0.169127 -0.09987,0.337247 -0.151311,0.50437 0.04023,0.14671 0.07946,0.292414 0.117687,0.437121 -0.01021,0.230773 -0.02142,0.460537 -0.03363,0.689305 -0.0046,0.191544 -0.01021,0.38208 -0.01681,0.57162 0.05144,0.185939 0.101874,0.370871 0.151311,0.554806 0.02902,0.314837 0.05704,0.628661 0.08406,0.941491 -0.0554,0.02217 -0.111804,0.04334 -0.169206,0.06352 -0.08222,-0.08618 -0.165434,-0.173359 -0.249651,-0.261539 -0.125809,-0.06637 -0.252613,-0.133732 -0.380419,-0.202098 -0.137698,0.115921 -0.276389,0.230837 -0.416084,0.344755 -0.216953,0.266507 -0.434898,0.532003 -0.653846,0.796504 -0.149586,0.06837 -0.300166,0.135732 -0.451748,0.202098 -0.201102,0.104032 -0.403196,0.207061 -0.606294,0.309091 -0.1694,0.104032 -0.339793,0.20706 -0.511189,0.309091 -0.09807,0.175362 -0.197135,0.349718 -0.297203,0.523077 -0.288283,0.397278 -0.577555,0.79354 -0.867832,1.188811 -0.133735,0.361613 -0.268464,0.722212 -0.404196,1.081818 -0.05052,0.179325 -0.10203,0.357643 -0.154545,0.534965 -0.224879,0.686562 -0.450749,1.372096 -0.677623,2.056644 -0.01881,0.417092 -0.03863,0.833167 -0.05944,1.248251 -0.102033,0.333874 -0.205061,0.666735 -0.309091,0.998602 -0.05052,0.551827 -0.102031,1.102632 -0.154546,1.652447 -0.01485,0.321986 -0.0307,0.642958 -0.04755,0.962937 -0.04259,1.491007 -0.08618,2.980954 -0.130769,4.469931 0.104032,1.744624 0.20706,3.488179 0.309091,5.230769 0.21499,3.868677 0.428972,7.736198 0.641958,11.602798 0.0644,0.104032 0.127806,0.20706 0.190209,0.309091 0.246693,0.167436 0.492376,0.333867 0.737063,0.4993 0.595418,0.524088 1.189812,1.047154 1.783217,1.569231 0.04855,0.341799 0.09611,0.682585 0.142658,1.022378 -0.0307,0.722226 -0.0624,1.443424 -0.0951,2.163636 0.04855,0.199139 0.09611,0.397271 0.142657,0.594406 0.28632,0.167437 0.571629,0.333867 0.855944,0.4993 0.104032,0.09611 0.207061,0.19121 0.309091,0.285315 0.01685,0.159511 0.0327,0.318016 0.04755,0.475525 0.0089,0.381427 0.01685,0.761839 0.02378,1.141258 0.04063,0.0327 0.08025,0.0644 0.118881,0.09511 0.07233,0.01685 0.143657,0.0327 0.213986,0.04755 2.790799,0.01685 5.580487,0.0327 8.369231,0.04755 0.08818,-0.07033 0.175359,-0.141657 0.261538,-0.213986 0.111958,-0.197139 0.222912,-0.39527 0.332867,-0.594405 0.254619,-0.205065 0.508227,-0.411122 0.76084,-0.618182 0.294246,-0.236767 0.58748,-0.474525 0.87972,-0.713287 0.05648,-0.426981 0.111956,-0.854944 0.166434,-1.283916 0.08026,-1.489007 0.159508,-2.978954 0.237762,-4.46993 0.468608,-0.173363 0.936198,-0.347718 1.402797,-0.523077 0.151586,-0.133735 0.302166,-0.268464 0.451748,-0.404196 -0.0069,-0.601343 -0.01485,-1.203662 -0.02378,-1.806993 -0.07033,-5.515195 -0.141657,-11.031168 -0.213986,-16.548252 -0.05448,-0.791557 -0.109956,-1.584082 -0.166434,-2.377623 -0.149585,-1.282942 -0.300165,-2.566832 -0.451748,-3.851748 -0.102032,-0.98177 -0.20506,-1.964501 -0.309091,-2.948252 -0.308097,-0.807408 -0.617182,-1.615783 -0.927272,-2.425175 -0.141661,-0.252618 -0.284315,-0.506226 -0.427973,-0.760839 -0.181288,-0.197139 -0.363568,-0.39527 -0.546853,-0.594406 -0.08618,-0.07033 -0.173359,-0.141657 -0.261538,-0.213986 -0.109958,-0.149585 -0.220912,-0.300165 -0.332867,-0.451748 -0.133735,-0.08618 -0.268464,-0.173359 -0.404196,-0.261538 -0.117884,-0.0307 -0.236762,-0.0624 -0.356643,-0.09511 -0.07033,-0.02278 -0.141658,-0.04655 -0.213987,-0.07133 -0.05448,-0.04655 -0.109955,-0.0941 -0.166433,-0.142657 -0.109958,-0.03863 -0.220912,-0.07825 -0.332867,-0.118881 -0.04655,-0.0069 -0.0941,-0.01485 -0.142658,-0.02378 -0.04655,-0.102032 -0.0941,-0.20506 -0.142657,-0.309091 -0.102032,-0.149585 -0.205061,-0.300165 -0.309091,-0.451748 -0.220916,-0.03863 -0.442823,-0.07825 -0.665734,-0.118881 -0.197139,0.0089 -0.395271,0.01685 -0.594406,0.02378 -0.09411,0.08818 -0.18921,0.175359 -0.285314,0.261539 -1.62e-4,-0.104882 -0.0013,-0.210759 -0.0035,-0.317638 -0.01021,-0.374483 -0.02142,-0.749951 -0.03363,-1.126426 0.04023,-0.02422 0.07946,-0.04944 0.117687,-0.07566 0.04023,-0.08587 0.07946,-0.172727 0.117686,-0.260591 -0.02982,-0.08026 -0.06065,-0.161519 -0.09247,-0.243779 -0.02702,-0.06065 -0.05504,-0.12229 -0.08406,-0.184935 0.0066,-0.06065 0.01221,-0.122291 0.01681,-0.184936 0.06265,-0.10548 0.12429,-0.211956 0.184935,-0.319434 0.01781,-0.04664 0.03462,-0.09427 0.05044,-0.142905 -0.02702,-0.223169 -0.05504,-0.447329 -0.08406,-0.672493 -0.01021,-0.06345 -0.02142,-0.127895 -0.03363,-0.193342 0.02061,-0.06065 0.04023,-0.12229 0.05884,-0.184935 0.0066,-0.158721 0.01221,-0.318435 0.01681,-0.479152 -0.01021,-0.150314 -0.02142,-0.301622 -0.03362,-0.453933 0.0066,-0.06905 0.01221,-0.139102 0.01681,-0.210154 0.01221,-0.178335 0.02342,-0.357663 0.03363,-0.537994 -0.01299,-0.09987 -0.027,-0.200743 -0.04201,-0.302617 -0.05785,-0.167127 -0.116687,-0.335247 -0.17653,-0.50437 -0.214763,-0.270805 -0.430517,-0.542599 -0.647275,-0.815398 -0.127897,-0.122293 -0.256789,-0.245581 -0.386684,-0.369872 -0.06345,-0.01301 -0.127894,-0.02702 -0.193342,-0.04203 -0.05784,-0.0074 -0.116686,-0.01581 -0.176529,-0.02522 -0.06625,-0.09147 -0.133499,-0.183936 -0.201748,-0.277404 -0.07185,-0.08306 -0.144707,-0.167123 -0.21856,-0.252185 z" /><path
       style="fill:#7f6537;fill-opacity:1;stroke:none;stroke-width:0.188976;stroke-linecap:butt;stroke-linejoin:miter;stroke-dasharray:none;stroke-opacity:1"
       d="m 19.824161,25.727147 c -0.122694,-0.03695 -0.369276,-0.111202 -0.568247,-0.162413 -0.198971,-0.05121 -0.350279,-0.07923 -0.52988,-0.05982 -0.1796,0.01941 -0.386949,0.08666 -0.608419,0.179127 -0.22147,0.09247 -0.456838,0.210152 -0.602827,0.398365 -0.145988,0.188214 -0.202028,0.445998 -0.246837,0.70104 -0.04481,0.255042 -0.07843,0.507222 -0.114843,0.854707 -0.03641,0.347485 -0.07564,0.790202 -0.08397,1.199381 -0.0083,0.40918 0.01408,0.784648 0.09832,1.182617 0.08424,0.397969 0.229944,0.818268 0.465664,1.047503 0.23572,0.229235 0.560752,0.268463 0.95017,0.279586 0.389419,0.01112 0.843343,-0.0057 1.114636,-0.06449 0.271293,-0.0588 0.360954,-0.159666 0.439336,-0.291145 0.07838,-0.131478 0.145631,-0.293995 0.218488,-0.490097 0.07286,-0.196101 0.151312,-0.425864 0.182272,-0.661002 0.03096,-0.235138 0.01415,-0.476109 -0.0055,-0.787146 -0.01962,-0.311037 -0.04204,-0.692109 -0.06586,-1.128537 -0.02382,-0.436429 -0.04904,-0.928166 -0.07348,-1.239155 -0.02444,-0.310988 -0.04826,-0.441279 -0.122103,-0.564661 -0.07384,-0.123381 -0.198531,-0.239665 -0.261392,-0.29829 -0.06286,-0.05862 -0.06286,-0.05862 -0.185557,-0.09557 z"
       id="path1803"
       inkscape:path-effect="#path-effect1805"
       inkscape:original-d="m 19.946854,25.764094 c -0.245581,-0.07325 -0.492162,-0.147509 -0.739743,-0.222763 -0.150314,-0.02702 -0.301622,-0.05504 -0.453932,-0.08406 -0.206357,0.06825 -0.413705,0.135499 -0.622057,0.201748 -0.234377,0.118689 -0.469745,0.236373 -0.706118,0.353059 -0.05504,0.258794 -0.111082,0.516578 -0.168123,0.773367 -0.03263,0.25319 -0.06625,0.50537 -0.100874,0.756555 -0.03823,0.443733 -0.07746,0.886449 -0.117686,1.328174 0.02342,0.376483 0.04583,0.751951 0.06725,1.126426 0.14671,0.421317 0.292414,0.841616 0.437121,1.260925 0.326045,0.04023 0.651077,0.07946 0.975115,0.117686 0.454942,-0.01581 0.908866,-0.03263 1.361799,-0.05044 0.09067,-0.09988 0.180331,-0.200748 0.268997,-0.302622 0.06825,-0.161522 0.135499,-0.324038 0.201748,-0.487557 0.07946,-0.228774 0.157915,-0.458537 0.235372,-0.689306 -0.01581,-0.239982 -0.03262,-0.480953 -0.05044,-0.72293 -0.02142,-0.380087 -0.04383,-0.761159 -0.06725,-1.143239 -0.02422,-0.49077 -0.04944,-0.982507 -0.07565,-1.475281 -0.02282,-0.1293 -0.04664,-0.259591 -0.07146,-0.390887 -0.123689,-0.115286 -0.248378,-0.23157 -0.374066,-0.348855 z"
       sodipodi:nodetypes="cccccccccccccccccccc" /><path
       style="fill:#544426;fill-opacity:1;stroke:none;stroke-width:0.0377953;stroke-linecap:butt;stroke-linejoin:miter;stroke-dasharray:none;stroke-opacity:1"
       d="m 19.183303,26.438498 c 0.0014,0.07336 0.0042,0.21907 0.01983,0.331245 0.01562,0.112175 0.04364,0.190631 0.08149,0.290107 0.03785,0.09948 0.08549,0.219962 0.111913,0.312367 0.02643,0.0924 0.03203,0.15685 0.01971,0.192644 -0.01232,0.0358 -0.04315,0.0442 -0.08922,0.0485 -0.04607,0.0043 -0.107714,0.0043 -0.186172,0.0043 -0.07846,0 -0.173727,0 -0.260559,-0.0028 -0.08683,-0.0028 -0.165287,-0.0084 -0.226876,-0.01666 -0.06159,-0.0083 -0.106428,-0.01951 -0.122524,-0.04736 -0.01609,-0.02785 -0.0021,-0.07269 0.02313,-0.130257 0.02522,-0.05757 0.06164,-0.127614 0.09386,-0.201775 0.03222,-0.07416 0.06024,-0.152615 0.08128,-0.226769 0.02104,-0.07415 0.03505,-0.144208 0.04352,-0.246379 0.0085,-0.102171 0.01127,-0.236667 0.01539,-0.313881 0.0041,-0.07721 0.0097,-0.09683 0.03962,-0.112654 0.02989,-0.01582 0.08313,-0.02703 0.121082,-0.03256 0.03795,-0.0055 0.06036,-0.0055 0.09689,0.0088 0.03652,0.01434 0.08696,0.04236 0.111583,0.05604 0.02462,0.01368 0.02465,0.01368 0.02606,0.08705 z"
       id="path1903"
       inkscape:path-effect="#path-effect1905"
       inkscape:original-d="m 19.181893,26.365135 c 0.0038,0.146707 0.0066,0.292414 0.0084,0.43712 0.02902,0.07946 0.05704,0.157915 0.08406,0.235373 0.04864,0.121491 0.09627,0.241977 0.142905,0.361465 0.0066,0.06545 0.01221,0.129895 0.01681,0.193342 -0.02982,0.0094 -0.06065,0.01781 -0.09247,0.02522 -0.06065,0.001 -0.12229,0.001 -0.184936,0 -0.09427,0.001 -0.189539,0.001 -0.285809,0 -0.07746,-0.0046 -0.155915,-0.01021 -0.235373,-0.01681 -0.04383,-0.01021 -0.08867,-0.02142 -0.134498,-0.03363 0.01501,-0.04383 0.02902,-0.08867 0.04203,-0.134498 0.03743,-0.06905 0.07385,-0.139103 0.109281,-0.210154 0.02902,-0.07746 0.05704,-0.155915 0.08406,-0.235373 0.01501,-0.06905 0.02902,-0.139103 0.04203,-0.210154 0.0038,-0.133501 0.0066,-0.267997 0.0084,-0.403496 0.0066,-0.01861 0.01221,-0.03823 0.01681,-0.05884 0.05424,-0.01021 0.107478,-0.02142 0.159717,-0.03363 0.02342,0.001 0.04583,0.001 0.06725,0 0.05144,0.02902 0.101874,0.05704 0.151311,0.08406 z" /><path
       style="fill:#534224;fill-opacity:1;stroke:none;stroke-width:0.0377953;stroke-linecap:butt;stroke-linejoin:miter;stroke-dasharray:none;stroke-opacity:1"
       d="m 18.53183,26.238406 c -0.05411,-0.01159 -0.163483,-0.03503 -0.261221,-0.04687 -0.09774,-0.01184 -0.183672,-0.01184 -0.269936,0.0115 -0.08626,0.02334 -0.172198,0.07022 -0.242687,0.121094 -0.07049,0.05088 -0.125174,0.105563 -0.157783,0.172397 -0.03261,0.06683 -0.04303,0.144955 -0.0098,0.210028 0.03318,0.06507 0.108704,0.117158 0.221887,0.138873 0.113182,0.02172 0.264222,0.0139 0.390259,-0.01482 0.126037,-0.02872 0.227598,-0.0782 0.298967,-0.127534 0.07137,-0.04933 0.113034,-0.09881 0.135175,-0.142661 0.02214,-0.04385 0.02474,-0.08291 0.0133,-0.133556 -0.01144,-0.05064 -0.03748,-0.113143 -0.05075,-0.144997 -0.01327,-0.03186 -0.01326,-0.03186 -0.06736,-0.04345 z"
       id="path1956"
       inkscape:path-effect="#path-effect1958"
       inkscape:original-d="m 18.585937,26.25 c -0.108375,-0.02244 -0.21775,-0.04588 -0.328125,-0.07031 -0.08494,10e-4 -0.170875,10e-4 -0.257812,0 -0.08494,0.04788 -0.170875,0.09475 -0.257813,0.140625 -0.05369,0.05569 -0.108375,0.110375 -0.164062,0.164063 -0.0094,0.07913 -0.01983,0.15725 -0.03125,0.234375 0.07652,0.05308 0.152042,0.105167 0.226562,0.15625 0.152045,-0.0068 0.303084,-0.01463 0.453125,-0.02344 0.102565,-0.04848 0.204125,-0.09796 0.304688,-0.148437 0.04267,-0.04848 0.08433,-0.09796 0.125,-0.148438 0.0036,-0.03806 0.0062,-0.07712 0.0078,-0.117187 -0.02504,-0.0615 -0.05108,-0.124 -0.07813,-0.1875 z" /><path
       style="fill:#534224;fill-opacity:1;stroke:none;stroke-width:0.0377953;stroke-linecap:butt;stroke-linejoin:miter;stroke-dasharray:none;stroke-opacity:1"
       d="m 20.042193,26.428855 c -0.03593,-0.03208 -0.108848,-0.09718 -0.18824,-0.136633 -0.07939,-0.03945 -0.165327,-0.05247 -0.239704,-0.05392 -0.07438,-0.0015 -0.136876,0.009 -0.187879,0.02456 -0.051,0.01559 -0.09007,0.03643 -0.115068,0.07468 -0.02499,0.03825 -0.03541,0.09293 -0.03922,0.146451 -0.0038,0.05352 -0.0012,0.105604 0.01882,0.148532 0.02002,0.04293 0.05648,0.07678 0.09823,0.105245 0.04175,0.02846 0.08862,0.0519 0.135481,0.06866 0.04686,0.01676 0.09373,0.02717 0.148333,0.03225 0.05461,0.0051 0.117106,0.0051 0.188345,-0.02104 0.07124,-0.02612 0.151971,-0.07821 0.19221,-0.116687 0.04024,-0.03848 0.04024,-0.06452 0.03769,-0.102239 -0.0025,-0.03772 -0.0078,-0.0872 -0.01042,-0.112483 -0.0027,-0.02529 -0.0026,-0.02528 -0.03858,-0.05736 z"
       id="path1961"
       inkscape:path-effect="#path-effect1963"
       inkscape:original-d="m 20.078125,26.460937 c -0.07192,-0.0641 -0.144833,-0.129208 -0.21875,-0.195312 -0.08494,-0.01202 -0.170875,-0.02504 -0.257813,-0.03906 -0.0615,0.01142 -0.124,0.02183 -0.1875,0.03125 -0.03806,0.02183 -0.07713,0.04267 -0.117187,0.0625 -0.0094,0.05569 -0.01983,0.110375 -0.03125,0.164063 0.0036,0.05308 0.0062,0.105167 0.0078,0.15625 0.03746,0.03486 0.07392,0.06871 0.109375,0.101562 0.04788,0.02444 0.09475,0.04788 0.140625,0.07031 0.04788,0.01142 0.09475,0.02183 0.140625,0.03125 0.0635,0.001 0.126,0.001 0.1875,0 0.08173,-0.05108 0.162459,-0.103167 0.242188,-0.15625 0.001,-0.02504 0.001,-0.05108 0,-0.07813 -0.0042,-0.04848 -0.0094,-0.09796 -0.01563,-0.148438 z" /><path
       style="fill:#664920;fill-opacity:1;stroke:none;stroke-width:0.377953;stroke-linecap:butt;stroke-linejoin:miter;stroke-dasharray:none;stroke-opacity:1"
       d="m 13.446106,48.83064 -0.0221,3.889087 0.817592,8.286408 0.707107,10.69499 0.132582,1.657281 8.750447,0.04419 0.265165,-1.038563 -0.243068,-2.607457 0.06629,-1.502602 0.04419,-2.099223 0.419845,-2.430679 v -5.723146 l 0.176777,-2.65165 0.110485,-3.49134 -0.441942,-0.220971 -0.331456,-1.370019 -0.243068,-3.071495 -0.729204,-4.728777 -0.08839,-2.850524 -1.237437,-1.303728 -1.657281,-2.209709 -2.58536,-0.110485 -1.370019,-0.331457 0.287262,1.171146 -0.552427,1.834058 -1.679379,0.53033 -0.132582,5.899922 z"
       id="path4349" /><path
       style="fill:#534224;fill-opacity:1;stroke:none;stroke-width:0.0377953;stroke-linecap:butt;stroke-linejoin:miter;stroke-dasharray:none;stroke-opacity:1"
       d="m 17.843259,29.376299 c -0.02755,-0.08559 -0.08302,-0.257968 -0.110956,-0.404688 -0.02793,-0.14672 -0.02793,-0.26758 0.06018,-0.449288 0.08811,-0.181708 0.264444,-0.423428 0.397898,-0.572712 0.133454,-0.149284 0.223625,-0.205781 0.306097,-0.239871 0.08247,-0.03409 0.156691,-0.04581 0.22968,-0.05292 0.07299,-0.0071 0.144599,-0.0097 0.234474,-0.0097 0.08987,3e-5 0.197946,0.0026 0.288528,0.01517 0.09058,0.01254 0.163494,0.03467 0.220652,0.07018 0.05716,0.03551 0.09882,0.08368 0.190646,0.276793 0.09183,0.193112 0.23422,0.531002 0.305163,0.771664 0.07094,0.240662 0.07094,0.38429 0.05887,0.48718 -0.01207,0.10289 -0.03601,0.165497 -0.05746,0.18869 -0.02145,0.02319 -0.04171,0.0066 -0.07513,-0.05307 -0.03342,-0.05969 -0.07946,-0.162807 -0.142754,-0.254981 -0.0633,-0.09217 -0.144322,-0.173198 -0.214484,-0.269777 -0.07016,-0.09658 -0.129085,-0.208901 -0.184141,-0.265663 -0.05506,-0.05676 -0.106616,-0.05676 -0.23643,-0.05859 -0.129814,-0.0018 -0.337891,-0.0055 -0.460732,0.0045 -0.12284,0.01004 -0.15967,0.03398 -0.218766,0.09673 -0.0591,0.06275 -0.140119,0.164028 -0.208298,0.26542 -0.06818,0.101393 -0.123423,0.20267 -0.164851,0.277233 -0.04143,0.07456 -0.06905,0.122434 -0.09846,0.161756 -0.02941,0.03932 -0.06079,0.07041 -0.07649,0.08595 -0.0157,0.01555 -0.01569,0.01554 -0.04323,-0.07005 z"
       id="path1907"
       inkscape:path-effect="#path-effect1909"
       inkscape:original-d="m 17.870805,29.461889 c -0.05448,-0.171378 -0.109955,-0.343756 -0.166433,-0.517133 0.001,-0.119865 0.001,-0.240725 0,-0.362588 0.177344,-0.24073 0.35368,-0.48245 0.529021,-0.725175 0.09117,-0.0555 0.181342,-0.111995 0.270513,-0.169493 0.07522,-0.01072 0.149438,-0.02244 0.222656,-0.03516 0.07262,-0.0016 0.14423,-0.0042 0.214844,-0.0078 0.109075,0.0036 0.217146,0.0062 0.324219,0.0078 0.07392,0.02314 0.146833,0.04527 0.21875,0.06641 0.04267,0.04918 0.08433,0.09735 0.125,0.144531 0.143399,0.338903 0.285792,0.676793 0.427187,1.01369 0.001,0.144634 0.001,0.288262 0,0.430893 -0.02294,0.06361 -0.04688,0.126217 -0.07182,0.187825 -0.01926,-0.01557 -0.03951,-0.03215 -0.06077,-0.04972 -0.04504,-0.102122 -0.09107,-0.20524 -0.138107,-0.30936 -0.08002,-0.08002 -0.161045,-0.161045 -0.243068,-0.243068 -0.05793,-0.111329 -0.116851,-0.223653 -0.176777,-0.33698 -0.05056,0.001 -0.102119,0.001 -0.154679,0 -0.207085,-0.0027 -0.415162,-0.0064 -0.624243,-0.01105 -0.03583,0.02494 -0.07266,0.04888 -0.110485,0.07182 -0.08002,0.10228 -0.161046,0.203556 -0.243068,0.303835 -0.05424,0.10228 -0.109486,0.203556 -0.165729,0.303835 -0.02662,0.04888 -0.05424,0.09675 -0.08286,0.143631 -0.03038,0.03209 -0.06177,0.06317 -0.09416,0.09326 z" /><path
       style="fill:none;stroke:none;stroke-width:0.0377953;stroke-linecap:butt;stroke-linejoin:miter;stroke-dasharray:none;stroke-opacity:1"
       d="m 18.528401,28.535428 c 0.02759,-0.03218 0.08283,-0.09663 0.136595,-0.136359 0.05377,-0.03973 0.105327,-0.05446 0.175511,-0.058 0.07018,-0.0035 0.158568,0.0038 0.222137,0.01126 0.06357,0.0074 0.102232,0.0148 0.135379,0.02796 0.03315,0.01316 0.06077,0.03158 0.08341,0.06862 0.02264,0.03704 0.04105,0.09229 0.04402,0.115521 0.003,0.02323 -0.01027,0.01493 -0.0397,0.0072 -0.02943,-0.0077 -0.07501,-0.01421 -0.179883,-0.01819 -0.104873,-0.004 -0.268933,-0.0053 -0.375167,-0.0015 -0.106234,0.0038 -0.154404,0.01294 -0.182699,0.01662 -0.02829,0.0037 -0.03718,0.0015 -0.04219,2.26e-4 -0.005,-0.0012 -0.005,-0.0013 0.02258,-0.03345 z"
       id="path1965"
       inkscape:path-effect="#path-effect1967"
       inkscape:original-d="m 18.500815,28.567611 c 0.05624,-0.06345 0.111485,-0.127899 0.165728,-0.193349 0.05256,-0.01373 0.10412,-0.02846 0.154679,-0.04419 0.08939,0.0084 0.177777,0.01573 0.265166,0.0221 0.03967,0.0084 0.07834,0.01573 0.116009,0.0221 0.02862,0.01941 0.05624,0.03783 0.08286,0.05524 0.01942,0.05624 0.03783,0.111485 0.05524,0.165728 -0.01224,-0.0073 -0.02548,-0.01561 -0.03972,-0.02492 -0.04457,-0.0055 -0.09015,-0.01202 -0.136719,-0.01953 -0.163065,-3.02e-4 -0.327125,-0.0016 -0.492187,-0.0039 -0.04718,0.01012 -0.09535,0.01923 -0.144531,0.02734 -0.0078,-0.0012 -0.01669,-0.0034 -0.02653,-0.0066 z" /><path
       style="fill:none;stroke:none;stroke-width:0.0377953;stroke-linecap:butt;stroke-linejoin:miter;stroke-dasharray:none;stroke-opacity:1"
       d="m 17.828125,26.585938 c 0.05504,-0.03014 0.109726,-0.06009 0.162727,-0.07761 0.053,-0.01753 0.103784,-0.02274 0.161121,-0.02596 0.05734,-0.0032 0.121141,-0.0045 0.17332,-4.71e-4 0.05218,0.004 0.09254,0.01316 0.131738,0.02201"
       id="path1969"
       inkscape:path-effect="#path-effect1971"
       inkscape:original-d="m 17.828125,26.585938 c 0.05569,-0.02895 0.110375,-0.0589 0.164062,-0.08984 0.05178,-0.0042 0.102563,-0.0094 0.152344,-0.01563 0.0648,-3.02e-4 0.128604,-0.0016 0.191406,-0.0039 0.04137,0.01011 0.08173,0.01923 0.121094,0.02734" /><path
       style="fill:none;stroke:none;stroke-width:0.0377953;stroke-linecap:butt;stroke-linejoin:miter;stroke-dasharray:none;stroke-opacity:1"
       d="m 19.457031,26.496094 c 0.07645,-0.0053 0.151967,-0.01048 0.208732,-0.0084 0.05677,0.0021 0.09453,0.01124 0.126338,0.02917 0.03181,0.01794 0.05785,0.04398 0.07597,0.06489 0.01812,0.02091 0.02854,0.03654 0.03818,0.05101"
       id="path1973"
       inkscape:path-effect="#path-effect1975"
       inkscape:original-d="m 19.457031,26.496094 c 0.07652,-0.0042 0.152042,-0.0094 0.226563,-0.01563 0.03876,0.01012 0.07652,0.01923 0.113281,0.02734 0.02704,0.02704 0.05308,0.05308 0.07813,0.07813 0.01142,0.01662 0.02183,0.03225 0.03125,0.04687" /><path
       style="fill:#534224;fill-opacity:1;stroke:none;stroke-width:0.0377953;stroke-linecap:butt;stroke-linejoin:miter;stroke-dasharray:none;stroke-opacity:1"
       d="m 17.585992,30.498653 c 0.07818,-0.06385 0.23443,-0.191451 0.415638,-0.294375 0.181209,-0.102924 0.386933,-0.181047 0.603286,-0.225237 0.216352,-0.04419 0.442911,-0.05461 0.633118,-0.04405 0.190207,0.01056 0.343851,0.04181 0.462287,0.09555 0.118437,0.05374 0.201767,0.129262 0.287579,0.230922 0.08581,0.101661 0.174352,0.229263 0.211662,0.345009 0.03731,0.115746 0.02429,0.219911 -0.0277,0.310592 -0.05199,0.09068 -0.143131,0.168802 -0.252294,0.233838 -0.109163,0.06504 -0.236766,0.117119 -0.418803,0.140671 -0.182036,0.02355 -0.419011,0.01834 -0.644267,0.01184 -0.225255,-0.0065 -0.438793,-0.01432 -0.615806,-0.03632 -0.177012,-0.022 -0.317635,-0.05846 -0.429682,-0.11413 -0.112047,-0.05567 -0.195377,-0.131188 -0.254271,-0.214394 -0.05889,-0.08321 -0.09275,-0.174349 -0.09694,-0.238659 -0.0042,-0.06431 0.02185,-0.100768 0.03494,-0.119092 0.01309,-0.01832 0.01308,-0.01832 0.09126,-0.08216 z"
       id="path1977"
       inkscape:path-effect="#path-effect1979"
       inkscape:original-d="m 17.507812,30.5625 c 0.15725,-0.126604 0.3135,-0.254208 0.46875,-0.382813 0.206734,-0.07713 0.412459,-0.15525 0.617188,-0.234375 0.227567,-0.0094 0.454125,-0.01983 0.679687,-0.03125 0.154649,0.03225 0.308292,0.0635 0.460938,0.09375 0.08434,0.07652 0.167667,0.152042 0.25,0.226563 0.08954,0.128607 0.178083,0.256208 0.265625,0.382812 -0.01202,0.105169 -0.02504,0.209334 -0.03906,0.3125 -0.09015,0.07913 -0.181291,0.15725 -0.273437,0.234375 -0.126607,0.05308 -0.254208,0.105167 -0.382813,0.15625 -0.235983,-0.0042 -0.472958,-0.0094 -0.710937,-0.01563 -0.212546,-0.0068 -0.426083,-0.01463 -0.640625,-0.02344 -0.139628,-0.03546 -0.28025,-0.07192 -0.421875,-0.109375 -0.08234,-0.07452 -0.165667,-0.150042 -0.25,-0.226563 -0.03285,-0.09015 -0.06671,-0.181291 -0.101563,-0.273437 0.02704,-0.03546 0.05308,-0.07192 0.07813,-0.109375 z" /><path
       style="fill:#261e11;fill-opacity:1;stroke:none;stroke-width:1px;stroke-linecap:butt;stroke-linejoin:miter;stroke-opacity:1"
       d="m 22.826291,39.686368 0.176776,2.717942 0.110486,0.90598 0.110485,-0.839689 0.243068,-0.640816 0.309359,-0.176776 0.861787,-0.110486 -0.08839,-0.265165 -0.640816,-0.552427 z"
       id="path13690" /><path
       style="fill:#dbb36e;fill-opacity:1;stroke:none;stroke-width:0.188976;stroke-linecap:butt;stroke-linejoin:miter;stroke-dasharray:none;stroke-opacity:1"
       d="m 18.511863,22.92733 -0.0055,-0.403272 H 18.11414 l 0.01657,-0.287262 0.370126,-0.0221 0.0221,-0.519282 0.276213,-0.01105 0.01657,0.541379 h 0.370126 l -0.01105,0.303835 -0.386699,-0.0055 -0.01105,0.425369 z"
       id="path1986" /><path
       style="fill:#a87e43;fill-opacity:1;stroke:none;stroke-width:0.377953;stroke-linecap:butt;stroke-linejoin:miter;stroke-dasharray:none;stroke-opacity:1"
       d="m 16.046875,35.640625 -1.171875,-0.25 -1.203125,0.21875 -0.28125,0.59375 -0.734375,1.40625 c 0,0 -0.453125,0.859375 -0.484375,0.921875 -0.03125,0.0625 -0.6875,1.25 -0.734375,1.3125 C 11.39063,39.90625 11,41.015625 11,41.015625 l 0.1875,5.328125 0.6875,2.25 0.796875,0.390625 0.8125,-0.28125 0.4375,-4.40625 0.01563,-1.625 v -1.78125 l 0.0625,-1.71875 0.375,-0.203125 1.359375,-0.40625 0.125,-0.40625 0.25,-0.9375 0.09375,-0.515625 -0.09375,-0.8125 z"
       id="path1988" /><path
       style="fill:#20190e;fill-opacity:1;stroke:none;stroke-width:0.377953;stroke-linecap:butt;stroke-linejoin:miter;stroke-dasharray:none;stroke-opacity:1"
       d="m 11.967267,38.859263 -0.178442,2.911358 0.53033,4.507805 0.06629,1.193243 0.596621,-1.933495 -0.03314,-2.309145 c 0,0 0.0221,-0.364602 0.04419,-0.430894 0.0221,-0.06629 0.441942,-0.839689 0.441942,-0.839689 l 0.430893,-0.784447 0.04419,-1.579941 -0.917029,2.408582 -0.662913,0.419845 -0.165728,-1.270583 z"
       id="path1990"
       sodipodi:nodetypes="cccccccccccccc" /><path
       style="fill:#835c29;fill-opacity:1;stroke:none;stroke-width:0.377953;stroke-linecap:butt;stroke-linejoin:miter;stroke-dasharray:none;stroke-opacity:1"
       d="m 20.765625,31.34375 -3.09375,1.234375 -1,-0.328125 -0.375,-0.5 -0.78125,-0.46875 L 15.25,31.75 l -1.109375,0.765625 -1.328125,0.875 -0.796875,1.15625 -0.78125,2.359375 -0.546875,1.53125 -0.46875,2.578125 -0.2499999,3.46875 -0.0625,3.8125 0.3749999,6.265625 0.359375,6.328125 0.28125,3.78125 0.171875,0.34375 2.015625,1.875 0.40625,0.4375 0.125,0.984375 -0.03125,1.921875 0.234375,0.8125 0.828125,0.453125 0.254736,-0.793244 -0.839689,-10.84967 -0.552428,-7.711883 v -3.402951 l -0.817592,0.110485 -0.861786,-0.220971 -0.68501,-2.231806 c 0,0 -0.198874,-5.391689 -0.198874,-5.480077 0,-0.08839 0.486136,-1.347922 0.486136,-1.347922 0,0 1.458408,-2.342292 1.480505,-2.474874 0.0221,-0.132583 0.640816,-1.502602 0.640816,-1.502602 l 1.193242,-0.198874 1.657282,-1.524699 0.662912,-0.397747 2.894719,2.65165 1.21534,1.657282 1.193242,1.347922 1.878253,2.010835 1.016466,0.751301 0.464038,1.568893 0.375651,2.342291 -0.309359,3.535534 -1.193243,2.231806 -0.15468,4.154252 -0.154679,7.977048 -0.397748,2.452777 -0.170125,3.610869 0.375,2.96875 1.734375,-1.578125 0.265625,-2.765625 0.4375,-2.4375 0.359375,-0.5625 1.15625,-0.859375 -0.01563,-0.5625 -0.140625,-10.015625 -0.112662,-8.856893 -0.508233,-4.92765 -0.419845,-3.314563 -1.171146,-2.828427 -1.303728,-1.414214 -0.817592,-0.265165 -0.662913,-0.37565 -0.596621,-0.574525 c -0.257799,-0.09575 -0.392847,-0.228772 -0.902304,-0.232575 z"
       id="path4355"
       sodipodi:nodetypes="cccccccccccccccccccccccccccccccscsccccccccccccccccccccccccccccccccccc" /><path
       style="fill:#20190e;fill-opacity:1;stroke:none;stroke-width:0.377953;stroke-linecap:butt;stroke-linejoin:miter;stroke-dasharray:none;stroke-opacity:1"
       d="m 23.080436,42.577164 0.552427,-0.861786 0.928078,-0.287262 0.928077,0.618718 0.574525,3.49134 -0.30936,4.02167 -1.104854,2.032932 -0.508233,-0.176777 -0.419845,-4.043767 0.176777,0.0221 0.618719,2.253903 -0.06629,-2.452776 0.30936,-1.082758 0.397747,-0.662912 0.176777,-0.994369 -0.640816,-1.59099 -0.839689,-0.331457 -0.68501,0.640816 z"
       id="path4353" /><path
       style="fill:#935e17;fill-opacity:1;stroke:none;stroke-width:0.377953;stroke-linecap:butt;stroke-linejoin:miter;stroke-dasharray:none;stroke-opacity:1"
       d="m 20,40.578125 -0.53125,-0.304688 h -0.335938 l -0.375,0.289063 -0.04687,1.046875 -0.02344,4.601562 -0.4375,0.617188 -1.851563,0.335937 -0.171875,0.53125 0.07813,0.429688 0.359375,0.07813 1.023438,-0.132813 0.299557,-0.01307 0.0442,25.223825 1.823009,0.0221 0.143631,-4.032719 0.475088,-20.031009 -0.519282,-2.596408 z"
       id="path6294" /><path
       style="fill:#a87e43;fill-opacity:1;stroke:none;stroke-width:0.377953;stroke-linecap:butt;stroke-linejoin:miter;stroke-dasharray:none;stroke-opacity:1"
       d="M 23.796875,42.609375 22.5,43.9375 c 0,0 -0.90625,1.078125 -0.96875,1.109375 -0.0625,0.03125 -1.515625,0.3125 -1.515625,0.3125 l -0.828125,1.28125 -0.90625,2.09375 0.53125,0.5625 1.015625,0.15625 0.5625,-0.15625 1.296875,-1.421875 0.96875,-0.390625 1.9375,-1.21875 0.453125,-0.5625 0.296875,-1.1875 -0.640625,-1.6875 z"
       id="path4351" /><path
       style="fill:#dbb36e;fill-opacity:1;stroke:none;stroke-width:0.264567;stroke-linecap:butt;stroke-linejoin:miter;stroke-dasharray:none;stroke-opacity:1"
       d="m 14.429687,35.195313 5e-6,-1.085938 -1.101562,-0.4375 0.328125,-0.8125 0.742188,0.203125 -0.02344,-3.039062 -1.78125,0.02344 0.03125,-0.96875 1.90625,-0.04687 -0.01563,-0.703125 -0.625,0.03125 v -0.78125 L 14.5625,27.5625 14.59375,26.78125 h 0.640625 l 0.03125,0.78125 0.640625,-0.01563 0.01563,0.8125 -0.59375,-0.01563 -0.01563,0.640625 1.859375,0.04687 0.01563,1.03125 H 15.42188 l -0.03125,3.359375 0.8125,0.609375 -0.09375,0.890625 -0.84375,-0.484375 0.03125,1.09375 -0.46875,-0.125 -0.53125,0.109375 z"
       id="path1992"
       sodipodi:nodetypes="ccccccccccccccccccccccccccccccc"
       inkscape:label="крест" /><path
       style="fill:#5d4a2b;fill-opacity:1;stroke:none;stroke-width:0.264567;stroke-linecap:butt;stroke-linejoin:miter;stroke-dasharray:none;stroke-opacity:1"
       d="M 16.476562,27.304687 17.328125,26.335937 18,25.71875 l 0.851562,-0.234375 1.0625,0.296875 0.304688,0.273437 0.210937,0.578125 0.601563,0.601563 0.03125,-0.992188 -0.07813,-1.148437 -0.5625,-0.679688 -0.57812,-0.617187 -0.359375,-0.117188 c 0,0 -0.421875,-0.484375 -0.445313,-0.523437 C 19.015625,23.117187 18.625,23.007812 18.625,23.007812 l -0.148438,0.164063 c 0,0 -0.289062,0.328125 -0.335937,0.351562 -0.04687,0.02344 -0.59375,0.273438 -0.59375,0.273438 L 17.054687,24.1875 16.851562,24.59375 16.5,25.007812 l -0.179688,0.359375 -0.125,0.484375 0.117188,0.695313 z"
       id="path10439" /><path
       style="fill:#000000;fill-opacity:1;stroke:#000000;stroke-width:0;stroke-linecap:butt;stroke-linejoin:miter;stroke-dasharray:none;stroke-opacity:1"
       d="m 13.53125,48.75 -0.15625,4.0625 1.3125,17.78125 0.25,0.15625 -0.28125,-7.09375 -0.75,-9.4375 -0.21875,-2 L 14.125,47.5 13.96875,44.25 Z"
       id="path13133" /><path
       style="fill:#000000;fill-opacity:1;stroke:none;stroke-width:1px;stroke-linecap:butt;stroke-linejoin:miter;stroke-opacity:1"
       d="m 24.226563,51.648438 -0.0078,3.945312 -0.09375,7.8125 -0.40625,4.28125 -0.28125,3.03125 0.625,2.15625 0.25,-0.46875 -0.46875,-2.3125 0.65625,-7.3125 0.195313,-11.3125 z"
       id="path13136"
       sodipodi:nodetypes="ccccccccccc" /></g></svg>
