<svg width="996" height="996" viewBox="0 0 996 996" fill="none" xmlns="http://www.w3.org/2000/svg">
<circle cx="498" cy="498" r="488" fill="white" stroke="#886C60" stroke-width="20"/>
<path d="M835.869 800.272H494.402" stroke="#2B8564" stroke-width="20"/>
<path d="M160 800.272H505.588" stroke="#69AD84" stroke-width="20"/>
<path d="M194.147 336.348L244.19 315.153L338.976 316.331L344.864 534.163L327.79 583.028L296.587 607.166L261.263 614.82H234.181L194.147 597.747L167.065 553.591V464.103V375.793L194.147 336.348Z" fill="#BEE2D4" stroke="#75BBAA" stroke-width="20"/>
<path d="M255.375 430.546V793.796" stroke="#71B9A5" stroke-width="20"/>
<path d="M718.122 323.396H822.328L826.449 490.008L818.207 558.89L787.004 602.456L740.494 616.586L698.693 610.699L645.707 567.721V386.39L679.265 337.525L718.122 323.396Z" fill="#89C6A7" stroke="#258361" stroke-width="20"/>
<path d="M736.962 429.368V799.094" stroke="#258361" stroke-width="20"/>
<path d="M487.338 135H643.941V559.479L618.037 624.828L552.687 667.806L487.338 678.992L427.287 667.806L371.357 624.828L341.331 559.479V376.382V258.635L371.357 195.051L427.287 146.186L487.338 135Z" fill="#C3E1C5" stroke="#65AC7D" stroke-width="20"/>
<path d="M494.402 250.981V793.207" stroke="#65AC7D" stroke-width="20"/>
<path d="M431.408 312.209L493.814 371.083L556.22 312.209" stroke="#65AC7D" stroke-width="20"/>
<path d="M433.174 496.484L493.814 554.18L553.865 496.484" stroke="#65AC7D" stroke-width="20"/>
</svg>
