<svg width="996" height="996" viewBox="0 0 996 996" fill="none" xmlns="http://www.w3.org/2000/svg">
<circle cx="498" cy="498" r="498" fill="#886C60"/>
<path d="M682 503.346V434.519L657.284 418L588.627 486.827L550.179 558.407L506.239 687.802L498 773.148V864L514.478 828.21L530.955 759.383L550.179 704.321L583.134 635.494L613.343 583.185L643.552 547.395L682 503.346Z" fill="#F9A798"/>
<path d="M479 434.855V344.205L484.524 319.482L498.333 303L520.429 308.494L531.476 316.735L537 330.47L531.476 344.205L503.857 423.867L490.048 531L479 525.506V434.855Z" fill="#FB9C71"/>
<path d="M394.586 761.121L369.46 672.764L356.56 650.386L336.874 638.62L314.208 650.854L304.398 662.326L302.158 677.433L312.012 689.1L364.329 758.149L409.141 858.272L419.713 849.478L394.586 761.121Z" fill="#FB9C71"/>
<path d="M591.344 765.378L658.532 704.35L680.554 691.778L702.017 690.861L712.739 710.848L714.029 724.54L707.548 737.859L693.669 743.033L616.132 776.304L547.59 847.141L544.839 838.889L566.843 800.382L591.344 765.378Z" fill="#FB9C71"/>
<path d="M182.861 162.409L269.91 229.51L360.627 167.457L323.709 270.981L410.759 338.082L300.893 334.963L263.976 438.487L232.993 333.035L123.127 329.915L213.844 267.862L182.861 162.409Z" fill="#FBDD60"/>
<path d="M524.375 152.881L584.894 199.531L647.962 156.39L622.297 228.363L682.816 275.013L606.435 272.844L580.769 344.817L559.228 271.504L482.847 269.335L545.916 226.194L524.375 152.881Z" fill="#FABF17"/>
<path d="M193.571 541.134L244.846 574.467L292.392 536.002L276.535 595.067L327.81 628.4L266.735 631.572L250.879 690.637L228.989 633.532L167.915 636.703L215.461 598.239L193.571 541.134Z" fill="#FABF17"/>
<path d="M818.899 632.624L820.024 700.808L885.219 720.808L820.72 742.948L821.846 811.133L780.857 756.632L716.358 778.773L755.525 722.949L714.537 668.448L779.732 688.448L818.899 632.624Z" fill="#FABF17"/>
<path d="M776.515 288.798L800.065 367.765L882.445 369.77L814.62 416.569L838.17 495.537L772.702 445.493L704.877 492.293L732.24 414.565L666.772 364.521L749.152 366.526L776.515 288.798Z" fill="#FBDD60"/>
<path d="M385.128 563.96L322 423.563V396.034L338.468 368.506L365.915 363L390.617 368.506L404.34 407.046L451 602.5V842L434.532 770.425L385.128 563.96Z" fill="#F9A798"/>
</svg>
